# xmcd
#
# Track frame offsets: 
#        183
#        20298
#        33108
#        50490
#        68408
#        80725
#        107105
#        125840
#        149013
#        162575
#        178428
#        197598
#        223118
#        246918
#
# Disc length: 3636 seconds
#
# Revision: 0
# Processed by: cddbd v1.5.1PL2 Copyright (c) Steve Scherf et al.
# Submitted via: ExactAudioCopy v0.95b3
#
DISCID=d40e320e
DTITLE=Christine Elisabeth Jaccard - Take Me Blues
DYEAR=1993
DGENRE=Blues
TTITLE0=Wasted Live Blues (4'24)
TTITLE1=Dr. Feelgood (2'46)
TTITLE2=I Wish I Knew How It Feels To Be Free (3'48)
TTITLE3=Jailhouse Blues (3'54)
TTITLE4=Rough Lover (2'40)
TTITLE5=Blue Day (5'48)
TTITLE6=Blue Night Boogie (4'04)
TTITLE7=Cry Me A River (5'05)
TTITLE8=Making Whoopee (2'55)
TTITLE9=Fine And Mellow (3'28)
TTITLE10=Thrill Of Love (4'12)
TTITLE11=The U. N. Blues (5'33)
TTITLE12=Requiem For Elvis (5'13)
TTITLE13=Take Me Blues (5'43)
EXTD=Piano: Dave ruosch
EXTT0=Bessy Smith
EXTT1=Aretha Franklin - Ted White
EXTT2=Taylor
EXTT3=Bessy Smith - C. Williams - C. E. Jaccard
EXTT4=J. L. Mcfarland
EXTT5=D. Ruosch - C. E. Jaccard
EXTT6=D. Ruosch - C. E. Jaccard
EXTT7=Arthur Hamilton
EXTT8=Walter Donaldson - Gus Kahn
EXTT9=Billie Holiday - Herzog
EXTT10=D. Ruosch - C. E. Jaccard
EXTT11=Music: D. Ruosch - C. E. Jaccard\nLyrics: C. E. Jaccard
EXTT12=D. Ruosch - C. E. Jaccard
EXTT13=D. Ruosch - C. E. Jaccard
PLAYORDER=
